<?xml version="1.0" encoding="UTF-8" standalone="no"?><!DOCTYPE svg PUBLIC "-//W3C//DTD SVG 1.1//EN" "http://www.w3.org/Graphics/SVG/1.1/DTD/svg11.dtd"><svg width="100%" height="100%" viewBox="0 0 54 53" version="1.1" xmlns="http://www.w3.org/2000/svg" xmlns:xlink="http://www.w3.org/1999/xlink" xml:space="preserve" xmlns:serif="http://www.serif.com/" style="fill-rule:evenodd;clip-rule:evenodd;stroke-linejoin:round;stroke-miterlimit:2;"><g><circle cx="26.969" cy="26.862" r="25.721" style="fill:#2d2d2d;"/><path d="M37.738,48.543c-0.141,0.059 -1.472,0.608 -1.479,0.332c0,-0.01 3.569,-2.085 2.063,-1.261c-1.678,0.918 -2.703,1.152 -1.529,0.614c0.401,-0.183 -2.919,0.854 -2.93,0.85c-0.021,-0.007 2.23,-0.799 2.169,-0.798c-0.068,0.001 -0.437,0.11 -0.567,0.151c-1.479,0.468 -1.327,0.419 -1.031,0.301c1.699,-0.673 -0.809,-0.189 -0.116,-0.354c0.271,-0.065 0.547,-0.147 0.806,-0.246c0.089,-0.035 0.219,-0.089 0.253,-0.187c0.004,-0.01 0.012,-0.034 0.008,-0.044c-0.001,-0.004 -0.062,0.013 -0.068,0.014c-0.054,0.009 -0.108,0.014 -0.163,0.005c-0.11,-0.017 -2.66,0.582 -0.101,-0.177c0.473,-0.14 1.015,-0.178 1.356,-0.579c0.024,-0.028 1.613,-0.642 0.054,-0.098c-2.019,0.706 1.989,-0.949 -0.279,-0.147c-0.077,0.027 -2.025,0.662 -2.046,0.572c-0.015,-0.059 1.652,-0.607 1.697,-0.633c0.174,-0.104 0.311,-0.246 0.495,-0.336c1.225,-0.597 2.78,-1.376 1.516,-0.834c-0.01,0.005 -1.678,0.647 -1.703,0.65c-0.31,0.035 -0.635,0.161 -0.937,0.241c-0.416,0.111 -0.887,0.214 -1.28,0.389c-0.253,0.112 -0.515,0.196 -0.79,0.268c-3.334,0.868 -0.321,0.016 0.17,-0.143c0.595,-0.193 1.17,-0.489 1.756,-0.713c0.415,-0.158 0.765,-0.354 1.086,-0.664c0.025,-0.024 0.054,-0.05 0.083,-0.079c7.102,-3.481 11.762,-10.752 11.762,-18.875c-0,-9.053 -5.734,-16.777 -13.767,-19.736c0.195,0.058 0.417,0.131 0.686,0.227c-0.508,-0.275 -1.06,-0.501 -1.641,-0.649c-0.388,-0.1 -0.835,-0.284 -1.216,-0.366c-0.106,-0.023 -0.212,-0.041 -0.316,-0.055c-0.409,-0.059 -0.806,-0.072 -1.222,-0.157l-1.362,-0.293c-0.197,-0.04 -0.392,-0.075 -0.585,-0.104c-0.611,-0.087 -1.096,-0.096 -1.687,-0.084c-0.498,0.011 -1.004,0.075 -1.389,0.244c-10.284,0.715 -18.54,8.838 -19.463,19.061l-0.041,0.529l0.041,-0.53c-0.012,0.055 -0.022,0.11 -0.028,0.164c-0.007,0.061 -0.011,0.122 -0.013,0.183l-0.002,0.216c-0.015,0.237 -0.026,0.475 -0.034,0.713l-0.065,0.57c-0.011,0.112 -0.02,0.225 -0.025,0.338c-0.012,0.359 0.067,0.719 0.117,1.092c0.005,0.037 0.01,0.073 0.015,0.11c0.306,4.38 1.965,8.452 4.616,11.735c0.006,0.022 0.019,0.053 0.039,0.091c-0.024,-0.026 -0.047,-0.052 -0.071,-0.078c-0.265,-0.282 -0.568,-0.542 -0.808,-0.839c-0.221,-0.268 -0.381,-0.612 -0.592,-0.891c-0.315,-0.418 -0.621,-0.841 -0.919,-1.259c0.272,0.429 0.548,0.865 0.839,1.294c0.195,0.287 0.343,0.639 0.551,0.915c0.059,0.077 0.121,0.152 0.187,0.226c0.255,0.287 0.549,0.552 0.782,0.853l0.743,0.988c0.11,0.142 0.223,0.282 0.342,0.418c0.293,0.33 0.653,0.607 1.018,0.893c-0.282,-0.16 -0.433,-0.234 -0.314,-0.13c0.111,0.096 0.304,0.228 0.795,0.512c0.117,0.093 0.236,0.185 0.356,0.275c-0.307,-0.156 -0.563,-0.285 -0.578,-0.287c-0.046,-0.007 0.644,0.417 1.447,0.905c0.032,0.022 0.064,0.043 0.096,0.065c-0.017,-0.013 -0.034,-0.025 -0.051,-0.038c0.912,0.554 1.953,1.18 2.226,1.35c0.176,0.11 -2.356,-1.262 -2.191,-1.134c0.307,0.238 0.749,0.523 1.076,0.731c0.164,0.105 -0.656,-0.14 -0.492,-0.034c0.255,0.164 1.368,0.898 1.634,1.045c0.081,0.045 -1.383,-0.628 -1.651,-0.676c-0.029,-0.006 -0.053,-0.008 -0.071,-0.009l-1.056,-0.799c-0.08,-0.056 -0.163,-0.109 -0.248,-0.159c-0.334,-0.197 -0.698,-0.362 -1.012,-0.578c-0.287,-0.196 -0.538,-0.481 -0.818,-0.689c-0.42,-0.313 -0.833,-0.633 -1.237,-0.95c0.382,0.335 0.77,0.676 1.17,1.006c0.268,0.22 0.509,0.516 0.786,0.723c0.078,0.058 0.159,0.112 0.242,0.164c0.326,0.204 0.683,0.376 0.991,0.598l0.991,0.74c0.145,0.106 0.293,0.208 0.446,0.305c0.328,0.205 0.694,0.358 1.07,0.507c0.807,0.439 1.672,0.888 1.667,0.924c-0.002,0.019 -5.619,-2.667 -1.948,-0.604c0.362,0.204 3.45,1.587 2.327,1.14c-2.681,-1.065 -2.905,-1.155 -1.3,-0.186c0.328,0.199 3.032,1.766 5.558,2.501c2.061,0.6 0.281,0.444 -2.547,-0.658c-0.248,-0.096 -0.357,0.007 -0.618,-0.046c-0.095,-0.02 -0.844,-0.316 -0.861,-0.168c-0.013,0.113 0.776,0.447 0.862,0.497c0.234,0.135 -1.683,-0.715 -1.487,-0.531c0.505,0.475 2.645,1.185 2.607,1.176c-0.067,-0.016 -1.641,-0.44 -1.565,-0.37c0.16,0.148 2.105,0.871 1.99,0.84c-1.934,-0.517 -3.599,-1.374 -3.27,-0.823c0.015,0.027 0.937,0.54 1.589,0.773c0.81,0.29 2.303,0.685 2.265,0.685c-1.597,-0.014 -4.096,-1.203 -4.342,-1.238c-0.053,-0.007 1.214,0.763 1.582,0.9c0.057,0.017 0.081,0.024 0.047,0.015c-0.014,-0.003 -0.029,-0.008 -0.047,-0.015c-0.243,-0.071 -1.096,-0.306 -0.817,-0.171c0.702,0.339 2.664,0.844 1.571,0.623c-0.231,-0.046 -1.098,-0.312 -2.335,-0.635c-0.065,-0.017 0.146,0.144 0.543,0.322c0.617,0.275 1.442,0.584 0.515,0.27c-0.886,-0.3 -1.284,-0.59 -3.063,-1.35c-1.921,-0.821 -1.241,-0.5 -3.471,-1.811c-6.752,-4.81 -10.989,-12.679 -10.989,-21.322c-0,-0.334 0.006,-0.666 0.018,-0.996c0.015,0.272 0.035,0.545 0.046,0.823c0.028,0.703 0.104,1.4 0.2,2.071c-0.064,-0.675 -0.104,-1.376 -0.102,-2.079c0.002,-0.699 -0.064,-1.365 0.051,-2.045c0.023,-0.143 0.05,-0.285 0.08,-0.427l0.378,-1.716c0.022,-0.118 0.038,-0.236 0.05,-0.355c0.048,-0.463 0.043,-0.928 0.125,-1.389c0.071,-0.42 0.264,-0.877 0.354,-1.301c0.094,-0.443 0.194,-0.886 0.297,-1.326c1.48,-4.176 3.991,-7.866 7.228,-10.764c0.19,-0.144 0.383,-0.287 0.579,-0.428c1.105,-0.799 2.042,-1.636 3.308,-2.286c0.264,-0.137 0.534,-0.269 0.808,-0.4l3.347,-1.542c0.223,-0.111 0.437,-0.229 0.644,-0.351c0.136,-0.079 0.27,-0.161 0.402,-0.243c0.378,-0.109 0.761,-0.214 1.149,-0.312c1.034,-0.262 1.98,-0.583 3.021,-0.776l0.898,-0.128c0.296,-0.03 0.596,-0.053 0.898,-0.073l2.488,-0.133c4.405,0.015 8.556,1.12 12.193,3.059c0.503,0.316 1.007,0.648 1.508,0.998c1.118,0.78 2.217,1.39 3.247,2.371c0.217,0.204 0.431,0.416 0.644,0.632l2.557,2.653c0.132,0.128 0.265,0.25 0.399,0.368c3.469,4.441 5.537,10.028 5.537,16.095c0,11.686 -7.746,21.957 -18.983,25.168c-0.078,0.023 -0.326,0.084 -0.405,0.098c0.049,-0.025 0.19,-0.165 0.234,-0.201c0.072,-0.06 0.306,-0.193 0.396,-0.222c1.097,-0.356 -0.734,-0.222 -0.723,-0.226c0.702,-0.219 1.791,-0.559 1.767,-0.707c-0.029,-0.172 -2.018,0.185 -1.911,0.152c0.139,-0.043 1.831,-0.561 1.973,-0.589c0.473,-0.095 1.046,-0.226 1.423,-0.548c0.092,-0.078 0.743,-0.131 0.678,-0.282c-0.016,-0.037 -1.765,0.51 -1.797,0.519c-1.932,0.546 2.899,-1.385 1.038,-0.694c-0.455,0.169 -0.953,0.305 -1.411,0.446c-0.281,0.086 -2.818,0.837 -2.815,0.788c0.003,-0.07 1.063,-0.384 1.122,-0.407c0.325,-0.13 0.804,-0.216 1.12,-0.33c0.5,-0.18 0.911,-0.35 1.415,-0.521c1.313,-0.443 0.048,-0.026 0.381,-0.177c0.633,-0.287 0.946,-0.424 1.056,-0.471l0.035,-0.015Zm7.147,-6.377c0.073,-0.089 0.145,-0.179 0.215,-0.27c0.028,-0.037 0.054,-0.075 0.08,-0.115c0.099,-0.153 0.181,-0.319 0.29,-0.465l0.364,-0.472c0.052,-0.069 0.102,-0.14 0.149,-0.212c0.149,-0.229 0.278,-0.479 0.389,-0.738c0.112,-0.258 0.206,-0.524 0.289,-0.785c-0.094,0.255 -0.201,0.516 -0.322,0.768c-0.121,0.251 -0.256,0.494 -0.411,0.714c-0.032,0.047 -0.065,0.092 -0.1,0.137l-0.42,0.538c-0.027,0.038 -0.053,0.077 -0.077,0.117c-0.096,0.157 -0.174,0.325 -0.28,0.474c-0.096,0.136 -0.196,0.27 -0.298,0.404c-0.046,0.059 -0.092,0.119 -0.138,0.178l-0.211,0.181l-0.516,0.404c-0.034,0.029 -0.067,0.059 -0.099,0.09c-0.124,0.123 -0.234,0.26 -0.367,0.374c-0.12,0.104 -0.244,0.206 -0.37,0.306c-0.189,0.151 -0.382,0.298 -0.572,0.442c0.198,-0.134 0.399,-0.27 0.595,-0.412c0.131,-0.094 0.26,-0.191 0.385,-0.291c0.035,-0.028 0.068,-0.057 0.101,-0.088c0.127,-0.119 0.241,-0.253 0.376,-0.363l0.45,-0.358c-0.034,0.043 -0.068,0.085 -0.102,0.128c0.049,-0.056 0.099,-0.111 0.149,-0.166c0.047,-0.04 0.093,-0.08 0.138,-0.121c0.19,-0.178 0.366,-0.379 0.528,-0.592c0.161,-0.211 0.307,-0.434 0.442,-0.654c-0.144,0.213 -0.302,0.427 -0.471,0.632c-0.06,0.073 -0.122,0.145 -0.186,0.215Zm-33.435,-1.048c0.493,0.566 1.128,1.198 1.697,1.573c1.501,0.991 2.034,1.324 1.944,1.288c-0.118,-0.047 -1.165,-0.69 -1.925,-1.14c-0.017,-0.015 -0.033,-0.029 -0.05,-0.044c-0.449,-0.395 -0.923,-0.741 -1.281,-1.176c-0.076,-0.091 -0.148,-0.183 -0.219,-0.276l-0.166,-0.225Zm2.09,2.038c0.242,0.137 0.536,0.301 0.895,0.499c0.533,0.295 -0.076,-0.013 -0.66,-0.309c-0.079,-0.062 -0.157,-0.126 -0.235,-0.19Zm36.815,-16.536c0.012,0.145 0.023,0.289 0.033,0.432c-0.009,-0.508 -0.018,-1.024 -0.044,-1.542c-0.017,-0.346 0.039,-0.724 0.005,-1.068c-0.01,-0.096 -0.024,-0.193 -0.042,-0.29c-0.068,-0.378 -0.182,-0.758 -0.224,-1.135l-0.121,-1.231c-0.02,-0.178 -0.044,-0.357 -0.076,-0.535c-0.102,-0.565 -0.347,-1.113 -0.551,-1.688c-0.203,-0.572 -0.445,-1.14 -0.696,-1.685c0.226,0.549 0.439,1.12 0.618,1.694c0.178,0.571 0.403,1.113 0.483,1.671c0.017,0.117 0.031,0.233 0.044,0.35l0.128,1.409c0.012,0.096 0.029,0.193 0.05,0.29c0.079,0.38 0.202,0.759 0.253,1.137c0.05,0.344 0.008,0.722 0.042,1.069c0.027,0.265 0.05,0.53 0.072,0.794c0.011,0.534 0.005,1.077 -0.028,1.614c-0.036,0.597 -0.019,1.184 -0.142,1.733c-0.025,0.116 -0.053,0.23 -0.083,0.343l-0.381,1.362c-0.022,0.095 -0.041,0.192 -0.057,0.29c-0.06,0.382 -0.079,0.781 -0.166,1.153c-0.076,0.339 -0.249,0.677 -0.34,1.014c-0.137,0.505 -0.283,1.007 -0.43,1.499c0.172,-0.478 0.347,-0.964 0.506,-1.457c0.107,-0.33 0.294,-0.663 0.385,-0.997c0.025,-0.093 0.045,-0.189 0.063,-0.285c0.07,-0.378 0.099,-0.774 0.194,-1.141l0.324,-1.194c0.044,-0.174 0.085,-0.349 0.119,-0.527c0.105,-0.564 0.07,-1.164 0.084,-1.774c0.01,-0.433 -0,-0.872 -0.022,-1.305Zm-0.148,1.93c0.016,-0.272 0.033,-0.547 0.043,-0.831c0.007,-0.19 0.046,-0.364 0.046,-0.559c-0,-0.055 -0.003,-0.112 -0.006,-0.171c-0.014,-0.228 -0.046,-0.477 -0.049,-0.694l-0.001,-0.7c-0.001,-0.103 -0.004,-0.207 -0.01,-0.314c-0.021,-0.342 -0.102,-0.736 -0.165,-1.127c-0.063,-0.389 -0.142,-0.793 -0.226,-1.189c0.073,0.387 0.14,0.78 0.192,1.159c0.053,0.378 0.126,0.761 0.137,1.089c0.003,0.069 0.004,0.136 0.004,0.203l-0.003,0.796c0.002,0.057 0.005,0.115 0.01,0.175c0.018,0.234 0.055,0.487 0.061,0.708c0.007,0.202 -0.026,0.383 -0.026,0.58c0.001,0.297 -0.002,0.589 -0.007,0.875Zm-44.258,-1.377l0.005,0.212c-0.004,-0.071 -0.006,-0.142 -0.005,-0.212Zm-0.004,-0.451c0,-0.199 0.004,-0.397 0.009,-0.597l-0.009,0.637l0,-0.04Zm-4.533,-5.64c-0.05,0.429 -0.062,0.86 -0.147,1.287l-0.307,1.433c0.104,-0.922 0.256,-1.83 0.454,-2.72Zm46.24,-0.972c-0.116,-0.371 -0.233,-0.749 -0.36,-1.119c-0.084,-0.248 -0.137,-0.554 -0.23,-0.792c-0.026,-0.067 -0.055,-0.131 -0.085,-0.194c-0.119,-0.247 -0.262,-0.475 -0.366,-0.734l-0.332,-0.853c-0.05,-0.122 -0.101,-0.243 -0.157,-0.36c-0.177,-0.369 -0.425,-0.659 -0.658,-0.988c-0.232,-0.328 -0.483,-0.634 -0.734,-0.919c0.239,0.3 0.475,0.621 0.695,0.962c0.218,0.338 0.455,0.633 0.618,1.008c0.035,0.078 0.068,0.158 0.1,0.238l0.374,0.981c0.028,0.066 0.058,0.129 0.09,0.191c0.125,0.243 0.272,0.466 0.382,0.721c0.101,0.231 0.161,0.53 0.255,0.771c0.141,0.36 0.277,0.726 0.408,1.087Zm-45.56,-1.51c-0.068,0.243 -0.135,0.487 -0.199,0.731c-0.054,0.208 -0.133,0.424 -0.21,0.641c0.124,-0.462 0.261,-0.919 0.409,-1.372Z" style="fill:#be5d77;"/></g></svg>