<?xml version="1.0" encoding="UTF-8" standalone="no"?><!DOCTYPE svg PUBLIC "-//W3C//DTD SVG 1.1//EN" "http://www.w3.org/Graphics/SVG/1.1/DTD/svg11.dtd"><svg width="100%" height="100%" viewBox="0 0 32 31" version="1.1" xmlns="http://www.w3.org/2000/svg" xmlns:xlink="http://www.w3.org/1999/xlink" xml:space="preserve" xmlns:serif="http://www.serif.com/" style="fill-rule:evenodd;clip-rule:evenodd;stroke-linejoin:round;stroke-miterlimit:2;"><g id="vegan"><path d="M20.239,29.762c0.739,-0.325 1.365,-1.037 1.423,-1.074c0.44,-0.278 0.59,-0.877 0.807,-1.342c0.121,-0.261 0.419,-0.543 0.425,-0.55c3.977,-2.527 6.748,-7.099 6.17,-12.323c-0.684,-6.189 -4.65,-10.28 -10.318,-11.684c0.12,0.022 0.256,0.05 0.421,0.09c-0.319,-0.13 -0.66,-0.227 -1.014,-0.277c-0.236,-0.034 -0.513,-0.114 -0.744,-0.137c-0.064,-0.007 -0.128,-0.01 -0.191,-0.012c-0.246,-0.008 -0.481,0.01 -0.733,-0.013l-0.826,-0.084c-0.119,-0.011 -0.237,-0.019 -0.354,-0.023c-0.367,-0.012 -0.655,0.015 -1.004,0.06c-0.294,0.039 -0.59,0.11 -0.807,0.236c-6.565,1.191 -11.271,7.146 -10.776,13.584l0.011,0.316l-0.011,-0.316c-0.003,0.033 -0.005,0.066 -0.006,0.098c0,0.037 0.002,0.073 0.005,0.11l0.013,0.128c0.006,0.141 0.015,0.283 0.027,0.424l-0.002,0.342c0.001,0.067 0.003,0.134 0.008,0.202c0.016,0.213 0.086,0.421 0.14,0.639c0.006,0.021 0.011,0.043 0.016,0.064c0.368,3.326 0.367,4.233 2.151,6.004c0.005,0.013 0.015,0.03 0.029,0.051c-0.015,-0.014 -0.031,-0.027 -0.047,-0.041c-0.175,-0.15 -0.371,-0.284 -0.533,-0.444c-0.149,-0.144 -0.266,-0.338 -0.409,-0.489c-0.214,-0.227 -0.245,-0.209 -0.045,0.026c0.134,0.157 0.245,0.356 0.386,0.506c0.04,0.042 0.082,0.082 0.125,0.121c0.17,0.153 0.362,0.291 0.519,0.454l0.627,0.963c0.074,0.077 0.151,0.152 0.23,0.225c0.195,0.176 0.426,0.317 0.661,0.462c-0.177,-0.076 -0.271,-0.11 -0.194,-0.056c0.072,0.049 0.195,0.115 0.504,0.251c0.076,0.048 0.508,0.743 0.585,0.788c-0.192,-0.072 -0.271,-0.273 -0.279,-0.273c-0.028,-0.001 0.326,0.346 0.834,0.582c0.02,0.011 0.041,0.022 0.061,0.033c-0.011,-0.007 -0.022,-0.013 -0.033,-0.019c0.576,0.268 -0.071,0.06 0.035,0.125c0.197,0.121 0.478,0.261 0.686,0.363c0.103,0.051 -0.399,-0.041 -0.294,0.011c0.162,0.081 0.176,0.231 0.014,0.22c-0.018,-0.001 -0.032,-0.001 -0.043,-0l-0.677,-0.405c-0.051,-0.028 -0.104,-0.053 -0.158,-0.078c-0.21,-0.094 -0.437,-0.168 -0.637,-0.276c-0.183,-0.096 -0.23,-0.044 -0.053,0.06c0.05,0.029 0.102,0.056 0.155,0.082c0.206,0.099 0.69,0.477 1.24,0.703c1.022,0.418 2.252,1.627 4.354,2.328c0.516,0.173 1.289,0.707 -0.93,0.327c-0.549,-0.094 -0.556,-0.168 -1.659,-0.502c-1.192,-0.36 -0.496,-0.133 -1.902,-0.763c-4.313,-2.407 -7.338,-6.789 -7.904,-11.907c-0.022,-0.197 -0.04,-0.394 -0.054,-0.59c0.026,0.159 0.056,0.32 0.081,0.484c0.062,0.414 0.153,0.822 0.254,1.213c-0.082,-0.395 -0.152,-0.808 -0.197,-1.224c-0.045,-0.415 -0.127,-0.805 -0.104,-1.215c0.005,-0.086 0.012,-0.172 0.02,-0.258l0.112,-1.041c0.004,-0.071 0.006,-0.142 0.006,-0.213c-0.002,-0.278 -0.035,-0.553 -0.017,-0.831c0.014,-0.253 0.099,-0.537 0.124,-0.793c0.027,-0.269 0.057,-0.538 0.089,-0.805c0.603,-2.57 1.849,-4.919 3.575,-6.848c0.104,-0.097 0.209,-0.194 0.315,-0.291c0.602,-0.545 1.102,-1.102 1.809,-1.57c0.147,-0.099 0.299,-0.195 0.453,-0.29l1.881,-1.132c0.124,-0.081 0.243,-0.164 0.358,-0.25c0.075,-0.056 0.149,-0.113 0.222,-0.171c0.216,-0.089 0.437,-0.176 0.66,-0.26c0.595,-0.222 1.134,-0.474 1.738,-0.657l0.523,-0.134c0.173,-0.038 0.35,-0.071 0.527,-0.103l1.465,-0.242c2.609,-0.279 5.139,0.103 7.421,1.013c0.318,0.155 0.638,0.318 0.958,0.492c0.713,0.389 1.403,0.678 2.078,1.192c0.141,0.107 0.282,0.218 0.422,0.332l1.689,1.404c0.086,0.066 0.173,0.13 0.26,0.191c2.345,2.403 3.936,5.576 4.333,9.168c0.765,6.92 -3.149,13.51 -9.592,16.147c-0.045,0.019 -0.188,0.071 -0.234,0.085c0.027,-0.018 0.101,-0.11 0.125,-0.135c0.039,-0.04 -0.437,0.119 -0.406,-0.088c0.627,-0.283 0.284,-0.41 0.29,-0.412c0.402,-0.176 -1.257,0.342 -1.263,-0.058Zm7.191,-5.936c0.038,-0.057 0.074,-0.115 0.109,-0.173c0.015,-0.024 0.028,-0.048 0.04,-0.073c0.049,-0.098 0.087,-0.201 0.142,-0.295l0.185,-0.303c0.026,-0.045 0.051,-0.09 0.074,-0.135c0.073,-0.146 0.133,-0.302 0.182,-0.463c0.049,-0.16 0.087,-0.324 0.119,-0.484c-0.039,0.158 -0.085,0.319 -0.14,0.476c-0.055,0.157 -0.119,0.309 -0.196,0.45c-0.016,0.029 -0.033,0.059 -0.05,0.087l-0.214,0.347c-0.014,0.024 -0.026,0.049 -0.038,0.074c-0.047,0.099 -0.082,0.204 -0.135,0.299c-0.048,0.087 -0.098,0.173 -0.15,0.259c-0.023,0.038 -0.047,0.076 -0.07,0.114l-0.113,0.121l-0.279,0.273c-0.018,0.019 -0.036,0.039 -0.053,0.06c-0.065,0.081 -0.121,0.169 -0.193,0.245c-0.064,0.07 -0.131,0.138 -0.199,0.206c-0.102,0.101 -0.206,0.201 -0.31,0.299c0.109,-0.092 0.219,-0.186 0.326,-0.283c0.071,-0.064 0.141,-0.13 0.209,-0.197c0.019,-0.019 0.036,-0.039 0.054,-0.059c0.067,-0.079 0.126,-0.165 0.199,-0.24l0.243,-0.241c-0.018,0.027 -0.035,0.055 -0.052,0.082c0.025,-0.036 0.051,-0.072 0.077,-0.108c0.025,-0.026 0.05,-0.053 0.074,-0.081c0.101,-0.117 0.192,-0.248 0.274,-0.384c0.081,-0.136 0.153,-0.278 0.219,-0.417c-0.072,0.136 -0.151,0.273 -0.238,0.405c-0.031,0.047 -0.063,0.094 -0.096,0.139Zm-21.667,1.45c0.33,0.302 0.747,0.635 1.108,0.819c0.954,0.489 1.648,1.301 1.592,1.285c-0.073,-0.02 -1.091,-0.982 -1.571,-1.198c-0.01,-0.008 -0.021,-0.015 -0.032,-0.023c-0.292,-0.204 -0.595,-0.378 -0.835,-0.612c-0.051,-0.049 -0.1,-0.099 -0.149,-0.149l-0.113,-0.122Zm1.728,1.718c0.152,0.066 0.337,0.144 0.562,0.237c0.335,0.14 -0.045,-0.002 -0.411,-0.139c-0.051,-0.033 -0.101,-0.065 -0.151,-0.098Zm22.16,-12.731c0.016,0.085 0.032,0.169 0.048,0.254c-0.039,-0.301 -0.078,-0.606 -0.127,-0.911c-0.033,-0.204 -0.025,-0.431 -0.067,-0.633c-0.012,-0.056 -0.027,-0.112 -0.044,-0.168c-0.065,-0.22 -0.158,-0.437 -0.207,-0.658l-0.152,-0.721c-0.024,-0.104 -0.05,-0.208 -0.08,-0.312c-0.098,-0.327 -0.279,-0.636 -0.437,-0.963c-0.158,-0.326 -0.339,-0.646 -0.523,-0.953c0.17,0.311 0.333,0.635 0.477,0.963c0.143,0.327 0.312,0.633 0.395,0.958c0.018,0.068 0.034,0.136 0.049,0.204l0.168,0.826c0.014,0.057 0.031,0.113 0.049,0.169c0.072,0.219 0.17,0.436 0.225,0.657c0.052,0.2 0.051,0.427 0.095,0.63c0.033,0.155 0.064,0.31 0.094,0.465c0.041,0.316 0.073,0.638 0.089,0.958c0.018,0.356 0.067,0.702 0.03,1.035c-0.008,0.07 -0.017,0.14 -0.027,0.209l-0.136,0.832c-0.008,0.057 -0.012,0.116 -0.015,0.175c-0.011,0.23 0.004,0.468 -0.023,0.693c-0.023,0.206 -0.103,0.418 -0.135,0.623c-0.048,0.308 -0.102,0.615 -0.156,0.916c0.07,-0.294 0.142,-0.594 0.204,-0.896c0.042,-0.202 0.131,-0.412 0.162,-0.615c0.009,-0.057 0.015,-0.115 0.019,-0.174c0.017,-0.228 0.008,-0.464 0.04,-0.688l0.114,-0.728c0.015,-0.106 0.027,-0.212 0.036,-0.32c0.025,-0.341 -0.035,-0.694 -0.067,-1.056c-0.022,-0.257 -0.057,-0.516 -0.098,-0.771Zm0.038,1.152c-0.007,-0.162 -0.015,-0.326 -0.028,-0.494c-0.008,-0.113 0.003,-0.219 -0.01,-0.335c-0.004,-0.032 -0.009,-0.066 -0.014,-0.1c-0.024,-0.135 -0.059,-0.28 -0.075,-0.408l-0.046,-0.415c-0.008,-0.06 -0.017,-0.122 -0.027,-0.185c-0.035,-0.201 -0.109,-0.429 -0.171,-0.657c-0.063,-0.226 -0.136,-0.46 -0.212,-0.689c0.069,0.225 0.134,0.453 0.19,0.674c0.055,0.22 0.124,0.442 0.152,0.636c0.006,0.04 0.011,0.08 0.016,0.12l0.05,0.471c0.005,0.034 0.011,0.068 0.017,0.103c0.026,0.138 0.065,0.285 0.083,0.416c0.017,0.119 0.009,0.228 0.023,0.345c0.02,0.175 0.037,0.349 0.052,0.518Zm-26.867,2.179l0.017,0.125c-0.007,-0.041 -0.013,-0.083 -0.017,-0.125Zm-0.032,-0.267c-0.013,-0.118 -0.024,-0.235 -0.033,-0.354l0.036,0.378l-0.003,-0.024Zm-2.477,-3.078c-0.002,0.257 0.019,0.513 -0.003,0.771l-0.088,0.868c0.002,-0.552 0.032,-1.099 0.091,-1.639Zm27.311,-3.664c-0.093,-0.212 -0.187,-0.428 -0.286,-0.639c-0.067,-0.142 -0.118,-0.319 -0.189,-0.454c-0.02,-0.038 -0.041,-0.074 -0.063,-0.11c-0.086,-0.138 -0.186,-0.263 -0.265,-0.41l-0.252,-0.483c-0.037,-0.07 -0.076,-0.138 -0.116,-0.203c-0.129,-0.207 -0.296,-0.363 -0.455,-0.542c-0.159,-0.179 -0.327,-0.344 -0.495,-0.497c0.161,0.162 0.323,0.337 0.475,0.525c0.151,0.186 0.311,0.345 0.432,0.556c0.026,0.044 0.05,0.089 0.074,0.135l0.287,0.556c0.02,0.037 0.042,0.073 0.065,0.107c0.09,0.136 0.192,0.258 0.273,0.402c0.075,0.131 0.131,0.304 0.202,0.44c0.107,0.204 0.211,0.412 0.313,0.617Zm-27.071,2.149c-0.025,0.149 -0.048,0.297 -0.07,0.446c-0.019,0.127 -0.051,0.26 -0.082,0.393c0.043,-0.282 0.094,-0.561 0.152,-0.839Z" style="fill:#6fb978;"/><path d="M15.863,25.817c-0.409,-0.496 -0.712,-1.114 -0.905,-1.819c-0.245,-0.894 -0.473,-1.329 -0.362,-2.431c0.074,-0.745 0.382,-0.936 0.38,-1.741c-0.002,-0.88 0.797,-3.067 1.509,-4.038c0.424,-0.578 0.755,-1.297 1.192,-1.805c0.344,-0.401 0.801,-0.609 1.089,-0.928c0.476,-0.528 0.631,-0.909 1.03,-1.273c0.468,-0.426 1.001,-0.699 1.467,-0.962c0.433,-0.244 1.001,-0.484 1.413,-0.59c0.844,-0.218 1.657,-0.166 2.502,0.077l0.023,0.023c0.249,0.263 0.591,0.675 0.772,1.014c0.331,0.621 0.42,1.253 0.516,2.068c0.047,0.4 0.168,0.87 0.142,1.341c-0.031,0.57 -0.223,1.149 -0.323,1.705c-0.139,0.772 -0.251,1.32 -0.56,2.115c-0.251,0.646 -0.557,1.343 -0.923,1.976c-0.198,0.342 -0.49,0.619 -0.801,1.059c-0.361,0.511 -0.793,1.21 -1.069,1.538c-0.654,0.781 -1.113,0.907 -1.846,1.449c-0.829,0.613 -1.531,1.066 -2.366,1.327c-0.805,0.251 -1.589,0.328 -2.309,0.207l0.825,-1.544l0.954,-1.652l1.04,-0.308l1.846,-0.699l0.847,-0.191c0.156,-0.05 0.254,-0.22 0.219,-0.379c-0.034,-0.16 -0.189,-0.249 -0.344,-0.199l-1.238,0.357l-0.51,0.204l-1.422,0.457l0.445,-0.701l0.714,-1.324l0.858,-1.468l0.307,-0.533c0.669,-0.256 1.252,-0.436 2.116,-0.674c0.261,-0.072 0.572,-0.223 0.888,-0.29c0.155,-0.049 0.3,-0.187 0.279,-0.35c-0.028,-0.224 -0.249,-0.278 -0.404,-0.228l-0.447,0.199l-0.922,0.24l-1.072,0.345l0.877,-1.496c0.565,-0.828 0.845,-1.388 1.167,-1.988c0.085,-0.149 0.063,-0.418 -0.071,-0.496c-0.134,-0.078 -0.291,-0.14 -0.377,0.008c-0.19,0.214 -0.31,0.515 -0.413,0.799l-1.67,2.892l-0.542,-2.506c-0.034,-0.159 -0.188,-0.248 -0.344,-0.199c-0.155,0.05 -0.253,0.22 -0.219,0.38l0.667,3.083l-0.373,0.717l-0.927,1.484l-0.403,0.749l-0.582,1.009l-0.153,-0.615l-0.253,-1.017l-0.176,-0.752l-0.161,-0.803c-0.034,-0.16 -0.188,-0.249 -0.344,-0.199c-0.155,0.05 -0.253,0.22 -0.219,0.379l0.262,1.304l0.282,1.149l0.276,1.308c-0.239,0.347 -0.405,0.786 -0.616,1.146c-0.37,0.632 -0.768,1.285 -1.238,2.09Z" style="fill:#6fb978;"/><path d="M15.296,26.13c-0.635,0.106 -1.321,0.059 -2.028,-0.126c-0.897,-0.234 -1.388,-0.254 -2.287,-0.901c-0.608,-0.438 -0.619,-0.799 -1.317,-1.2c-0.763,-0.439 -2.257,-2.224 -2.743,-3.326c-0.288,-0.656 -0.745,-1.303 -0.967,-1.934c-0.175,-0.499 -0.127,-0.999 -0.26,-1.408c-0.218,-0.676 -0.471,-1.001 -0.586,-1.529c-0.135,-0.618 -0.106,-1.216 -0.1,-1.751c0.005,-0.497 0.082,-1.109 0.196,-1.519c0.233,-0.839 0.684,-1.518 1.317,-2.128l0.032,-0.008c0.352,-0.084 0.879,-0.174 1.264,-0.161c0.703,0.023 1.295,0.261 2.048,0.586c0.371,0.159 0.838,0.289 1.233,0.547c0.478,0.312 0.883,0.769 1.315,1.133c0.599,0.506 1.018,0.878 1.552,1.543c0.434,0.54 0.884,1.154 1.25,1.787c0.197,0.342 0.291,0.733 0.516,1.223c0.262,0.568 0.651,1.292 0.798,1.695c0.349,0.957 0.228,1.417 0.332,2.323c0.116,1.024 0.157,1.859 -0.034,2.712c-0.185,0.823 -0.511,1.541 -0.975,2.104l-0.925,-1.487l-0.954,-1.652l0.253,-1.055l0.318,-1.948l0.258,-0.829c0.035,-0.159 -0.063,-0.329 -0.219,-0.379c-0.155,-0.05 -0.309,0.039 -0.344,0.198l-0.31,1.251l-0.078,0.543l-0.316,1.46l-0.384,-0.735l-0.789,-1.28l-0.843,-1.477l-0.308,-0.533c0.113,-0.707 0.248,-1.303 0.474,-2.169c0.068,-0.262 0.093,-0.607 0.193,-0.914c0.035,-0.16 -0.012,-0.353 -0.163,-0.417c-0.208,-0.088 -0.365,0.077 -0.4,0.236l-0.051,0.486l-0.253,0.919l-0.238,1.1l-0.856,-1.507c-0.435,-0.903 -0.78,-1.425 -1.139,-2.004c-0.086,-0.148 -0.33,-0.265 -0.465,-0.187c-0.134,0.078 -0.267,0.182 -0.181,0.33c0.09,0.272 0.29,0.526 0.485,0.758l1.67,2.891l-2.441,-0.783c-0.156,-0.05 -0.31,0.039 -0.344,0.199c-0.035,0.159 0.063,0.329 0.219,0.379l3.004,0.964l0.433,0.682l0.822,1.545l0.448,0.723l0.582,1.009l-0.609,-0.175l-1.007,-0.289l-0.739,-0.224l-0.776,-0.263c-0.156,-0.05 -0.31,0.039 -0.345,0.199c-0.034,0.159 0.064,0.329 0.219,0.379l1.261,0.425l1.135,0.331l1.272,0.414c0.18,0.381 0.477,0.745 0.684,1.107c0.362,0.636 0.729,1.308 1.191,2.117Z" style="fill:#6fb978;"/></g></svg>