<?xml version="1.0" encoding="UTF-8" standalone="no"?><!DOCTYPE svg PUBLIC "-//W3C//DTD SVG 1.1//EN" "http://www.w3.org/Graphics/SVG/1.1/DTD/svg11.dtd"><svg width="100%" height="100%" viewBox="0 0 32 32" version="1.1" xmlns="http://www.w3.org/2000/svg" xmlns:xlink="http://www.w3.org/1999/xlink" xml:space="preserve" xmlns:serif="http://www.serif.com/" style="fill-rule:evenodd;clip-rule:evenodd;stroke-linejoin:round;stroke-miterlimit:2;"><g id="vegetarian"><path d="M20.239,30.107c0.739,-0.325 1.365,-1.037 1.423,-1.074c0.44,-0.278 0.59,-0.877 0.807,-1.342c0.121,-0.261 0.419,-0.543 0.425,-0.55c3.977,-2.527 6.748,-7.099 6.17,-12.323c-0.684,-6.189 -4.65,-10.28 -10.318,-11.684c0.12,0.022 0.256,0.05 0.421,0.09c-0.319,-0.13 -0.66,-0.227 -1.014,-0.277c-0.236,-0.034 -0.513,-0.114 -0.744,-0.137c-0.064,-0.007 -0.128,-0.01 -0.191,-0.012c-0.246,-0.008 -0.481,0.01 -0.733,-0.013l-0.826,-0.084c-0.119,-0.011 -0.237,-0.019 -0.354,-0.024c-0.367,-0.011 -0.655,0.016 -1.004,0.061c-0.294,0.039 -0.59,0.11 -0.807,0.236c-6.565,1.191 -11.271,7.146 -10.776,13.584l0.011,0.316l-0.011,-0.316c-0.003,0.033 -0.005,0.066 -0.006,0.098c0,0.037 0.002,0.073 0.005,0.11l0.013,0.128c0.006,0.141 0.015,0.282 0.027,0.424l-0.002,0.342c0.001,0.067 0.003,0.134 0.008,0.202c0.016,0.213 0.086,0.421 0.14,0.639c0.006,0.021 0.011,0.042 0.016,0.064c0.368,3.326 0.367,4.233 2.151,6.004c0.005,0.013 0.015,0.03 0.029,0.051c-0.015,-0.014 -0.031,-0.027 -0.047,-0.041c-0.175,-0.15 -0.371,-0.284 -0.533,-0.444c-0.149,-0.144 -0.266,-0.338 -0.409,-0.489c-0.214,-0.227 -0.245,-0.209 -0.045,0.026c0.134,0.157 0.245,0.356 0.386,0.506c0.04,0.042 0.082,0.082 0.125,0.121c0.17,0.153 0.362,0.291 0.519,0.454l0.627,0.963c0.074,0.077 0.151,0.152 0.23,0.225c0.195,0.176 0.426,0.317 0.661,0.462c-0.177,-0.076 -0.271,-0.11 -0.194,-0.056c0.072,0.049 0.195,0.115 0.504,0.251c0.076,0.048 0.508,0.743 0.585,0.788c-0.192,-0.072 -0.271,-0.273 -0.279,-0.273c-0.028,-0.001 0.326,0.346 0.834,0.582c0.02,0.011 0.041,0.022 0.061,0.033c-0.011,-0.007 -0.022,-0.013 -0.033,-0.019c0.576,0.268 -0.071,0.06 0.035,0.125c0.197,0.121 0.478,0.26 0.686,0.363c0.103,0.051 -0.399,-0.041 -0.294,0.011c0.162,0.081 0.176,0.231 0.014,0.22c-0.018,-0.001 -0.032,-0.001 -0.043,-0l-0.677,-0.405c-0.051,-0.028 -0.104,-0.053 -0.158,-0.078c-0.21,-0.094 -0.437,-0.168 -0.637,-0.276c-0.183,-0.096 -0.23,-0.044 -0.053,0.06c0.05,0.029 0.102,0.056 0.155,0.082c0.206,0.099 0.69,0.477 1.24,0.702c1.022,0.419 2.252,1.628 4.354,2.329c0.516,0.173 1.289,0.707 -0.93,0.327c-0.549,-0.094 -0.556,-0.168 -1.659,-0.502c-1.192,-0.36 -0.496,-0.133 -1.902,-0.763c-4.313,-2.407 -7.338,-6.789 -7.904,-11.907c-0.022,-0.197 -0.04,-0.395 -0.054,-0.59c0.026,0.159 0.056,0.32 0.081,0.484c0.062,0.414 0.153,0.822 0.254,1.213c-0.082,-0.396 -0.152,-0.808 -0.197,-1.224c-0.045,-0.415 -0.127,-0.805 -0.104,-1.215c0.005,-0.086 0.012,-0.172 0.02,-0.258l0.112,-1.041c0.004,-0.071 0.006,-0.142 0.006,-0.213c-0.002,-0.278 -0.035,-0.553 -0.017,-0.831c0.014,-0.253 0.099,-0.537 0.124,-0.793c0.027,-0.269 0.057,-0.538 0.089,-0.805c0.603,-2.57 1.849,-4.919 3.575,-6.848c0.104,-0.097 0.209,-0.194 0.315,-0.291c0.602,-0.546 1.102,-1.102 1.809,-1.57c0.147,-0.099 0.299,-0.195 0.453,-0.29l1.881,-1.132c0.124,-0.081 0.243,-0.164 0.358,-0.25c0.075,-0.056 0.149,-0.113 0.222,-0.171c0.216,-0.089 0.437,-0.176 0.66,-0.26c0.595,-0.223 1.134,-0.475 1.738,-0.657l0.523,-0.134c0.173,-0.038 0.35,-0.071 0.527,-0.103l1.465,-0.242c2.609,-0.279 5.139,0.103 7.421,1.013c0.318,0.155 0.638,0.318 0.958,0.492c0.713,0.389 1.403,0.678 2.078,1.192c0.141,0.107 0.282,0.218 0.422,0.332l1.689,1.404c0.086,0.066 0.173,0.13 0.26,0.191c2.345,2.403 3.936,5.576 4.333,9.168c0.765,6.92 -3.149,13.51 -9.592,16.147c-0.045,0.019 -0.188,0.071 -0.234,0.085c0.027,-0.018 0.101,-0.11 0.125,-0.135c0.039,-0.04 -0.437,0.119 -0.406,-0.088c0.627,-0.283 0.284,-0.41 0.29,-0.412c0.402,-0.176 -1.257,0.342 -1.263,-0.058Zm7.191,-5.936c0.038,-0.057 0.074,-0.115 0.109,-0.173c0.015,-0.024 0.028,-0.048 0.04,-0.073c0.049,-0.098 0.087,-0.201 0.142,-0.295l0.185,-0.303c0.026,-0.045 0.051,-0.09 0.074,-0.135c0.073,-0.146 0.133,-0.302 0.182,-0.463c0.049,-0.16 0.087,-0.324 0.119,-0.484c-0.039,0.158 -0.085,0.319 -0.14,0.476c-0.055,0.156 -0.119,0.309 -0.196,0.45c-0.016,0.029 -0.033,0.058 -0.05,0.087l-0.214,0.346c-0.014,0.025 -0.026,0.05 -0.038,0.075c-0.047,0.099 -0.082,0.204 -0.135,0.299c-0.048,0.087 -0.098,0.173 -0.15,0.258c-0.023,0.039 -0.047,0.077 -0.07,0.115l-0.113,0.121l-0.279,0.273c-0.018,0.019 -0.036,0.039 -0.053,0.06c-0.065,0.081 -0.121,0.169 -0.193,0.245c-0.064,0.07 -0.131,0.138 -0.199,0.206c-0.102,0.101 -0.206,0.201 -0.31,0.299c0.109,-0.092 0.219,-0.186 0.326,-0.283c0.071,-0.064 0.141,-0.13 0.209,-0.197c0.019,-0.019 0.036,-0.039 0.054,-0.059c0.067,-0.079 0.126,-0.166 0.199,-0.24l0.243,-0.241c-0.018,0.027 -0.035,0.055 -0.052,0.082c0.025,-0.036 0.051,-0.072 0.077,-0.108c0.025,-0.026 0.05,-0.053 0.074,-0.081c0.101,-0.117 0.192,-0.248 0.274,-0.384c0.081,-0.136 0.153,-0.278 0.219,-0.417c-0.072,0.136 -0.151,0.273 -0.238,0.405c-0.031,0.047 -0.063,0.094 -0.096,0.139Zm-21.667,1.45c0.33,0.302 0.747,0.635 1.108,0.819c0.954,0.489 1.648,1.3 1.592,1.285c-0.073,-0.02 -1.091,-0.982 -1.571,-1.198c-0.01,-0.008 -0.021,-0.015 -0.032,-0.023c-0.292,-0.204 -0.595,-0.378 -0.835,-0.612c-0.051,-0.049 -0.1,-0.099 -0.149,-0.15l-0.113,-0.121Zm1.728,1.718c0.152,0.066 0.337,0.143 0.562,0.237c0.335,0.14 -0.045,-0.003 -0.411,-0.139c-0.051,-0.033 -0.101,-0.065 -0.151,-0.098Zm22.16,-12.731c0.016,0.085 0.032,0.169 0.048,0.254c-0.039,-0.301 -0.078,-0.606 -0.127,-0.911c-0.033,-0.204 -0.025,-0.431 -0.067,-0.633c-0.012,-0.056 -0.027,-0.112 -0.044,-0.168c-0.065,-0.22 -0.158,-0.437 -0.207,-0.658l-0.152,-0.721c-0.024,-0.104 -0.05,-0.208 -0.08,-0.312c-0.098,-0.328 -0.279,-0.636 -0.437,-0.963c-0.158,-0.326 -0.339,-0.646 -0.523,-0.953c0.17,0.311 0.333,0.635 0.477,0.963c0.143,0.327 0.312,0.633 0.395,0.958c0.018,0.068 0.034,0.136 0.049,0.204l0.168,0.826c0.014,0.057 0.031,0.113 0.049,0.169c0.072,0.219 0.17,0.436 0.225,0.657c0.052,0.2 0.051,0.426 0.095,0.63c0.033,0.155 0.064,0.31 0.094,0.465c0.041,0.315 0.073,0.638 0.089,0.958c0.018,0.356 0.067,0.702 0.03,1.035c-0.008,0.07 -0.017,0.14 -0.027,0.209l-0.136,0.831c-0.008,0.058 -0.012,0.117 -0.015,0.176c-0.011,0.23 0.004,0.468 -0.023,0.693c-0.023,0.206 -0.103,0.418 -0.135,0.623c-0.048,0.308 -0.102,0.615 -0.156,0.916c0.07,-0.294 0.142,-0.594 0.204,-0.896c0.042,-0.203 0.131,-0.412 0.162,-0.615c0.009,-0.058 0.015,-0.115 0.019,-0.174c0.017,-0.228 0.008,-0.464 0.04,-0.688l0.114,-0.728c0.015,-0.106 0.027,-0.212 0.036,-0.32c0.025,-0.341 -0.035,-0.694 -0.067,-1.056c-0.022,-0.257 -0.057,-0.516 -0.098,-0.771Zm0.038,1.152c-0.007,-0.162 -0.015,-0.326 -0.028,-0.495c-0.008,-0.112 0.003,-0.218 -0.01,-0.334c-0.004,-0.032 -0.009,-0.066 -0.014,-0.1c-0.024,-0.135 -0.059,-0.28 -0.075,-0.408l-0.046,-0.415c-0.008,-0.06 -0.017,-0.122 -0.027,-0.185c-0.035,-0.201 -0.109,-0.429 -0.171,-0.657c-0.063,-0.226 -0.136,-0.46 -0.212,-0.689c0.069,0.225 0.134,0.453 0.19,0.674c0.055,0.22 0.124,0.442 0.152,0.636c0.006,0.04 0.011,0.08 0.016,0.12l0.05,0.471c0.005,0.034 0.011,0.068 0.017,0.103c0.026,0.137 0.065,0.285 0.083,0.416c0.017,0.119 0.009,0.228 0.023,0.345c0.02,0.175 0.037,0.348 0.052,0.518Zm-26.867,2.179l0.017,0.125c-0.007,-0.041 -0.013,-0.083 -0.017,-0.125Zm-0.032,-0.267c-0.013,-0.118 -0.024,-0.235 -0.033,-0.354l0.036,0.378l-0.003,-0.024Zm-2.477,-3.079c-0.002,0.258 0.019,0.514 -0.003,0.772l-0.088,0.868c0.002,-0.552 0.032,-1.099 0.091,-1.64Zm27.311,-3.663c-0.093,-0.213 -0.187,-0.428 -0.286,-0.639c-0.067,-0.142 -0.118,-0.319 -0.189,-0.454c-0.02,-0.038 -0.041,-0.074 -0.063,-0.11c-0.086,-0.138 -0.186,-0.264 -0.265,-0.41l-0.252,-0.483c-0.037,-0.07 -0.076,-0.138 -0.116,-0.203c-0.129,-0.208 -0.296,-0.363 -0.455,-0.543c-0.159,-0.179 -0.327,-0.343 -0.495,-0.496c0.161,0.162 0.323,0.337 0.475,0.524c0.151,0.187 0.311,0.346 0.432,0.557c0.026,0.044 0.05,0.089 0.074,0.135l0.287,0.556c0.02,0.037 0.042,0.073 0.065,0.107c0.09,0.136 0.192,0.258 0.273,0.402c0.075,0.13 0.131,0.304 0.202,0.44c0.107,0.204 0.211,0.412 0.313,0.617Zm-27.071,2.149c-0.025,0.149 -0.048,0.297 -0.07,0.446c-0.019,0.127 -0.051,0.26 -0.082,0.393c0.043,-0.282 0.094,-0.561 0.152,-0.839Z" style="fill:#93af64;"/><path d="M15.611,25.946c-0.602,-0.225 -1.173,-0.609 -1.693,-1.122c-0.66,-0.652 -1.074,-0.914 -1.53,-1.924c-0.307,-0.683 -0.136,-1.002 -0.54,-1.698c-0.442,-0.762 -0.844,-3.054 -0.713,-4.252c0.078,-0.712 0.006,-1.501 0.13,-2.159c0.097,-0.519 0.389,-0.928 0.478,-1.348c0.149,-0.695 0.093,-1.103 0.257,-1.618c0.192,-0.602 0.517,-1.106 0.789,-1.566c0.253,-0.428 0.625,-0.92 0.929,-1.218c0.621,-0.61 1.352,-0.972 2.205,-1.184l0.031,0.009c0.348,0.103 0.849,0.289 1.176,0.492c0.597,0.373 0.99,0.874 1.481,1.532c0.241,0.324 0.581,0.67 0.794,1.091c0.257,0.509 0.38,1.107 0.572,1.638c0.266,0.738 0.443,1.269 0.573,2.112c0.105,0.685 0.188,1.441 0.188,2.173c0,0.395 -0.114,0.78 -0.164,1.317c-0.057,0.623 -0.082,1.445 -0.156,1.867c-0.176,1.003 -0.511,1.342 -0.875,2.178c-0.411,0.945 -0.793,1.688 -1.385,2.332c-0.571,0.62 -1.212,1.078 -1.896,1.334l-0.058,-1.75l0,-1.907l0.747,-0.788l1.249,-1.528l0.638,-0.589c0.11,-0.121 0.11,-0.317 0,-0.438c-0.109,-0.121 -0.287,-0.121 -0.397,0l-0.894,0.928l-0.339,0.432l-1.004,1.106l0.035,-0.829l-0.043,-1.503l0.008,-1.701l0,-0.615c0.451,-0.556 0.867,-1.004 1.495,-1.642c0.191,-0.192 0.384,-0.478 0.625,-0.694c0.109,-0.121 0.166,-0.312 0.066,-0.443c-0.136,-0.18 -0.354,-0.116 -0.464,0.004l-0.287,0.396l-0.678,0.669l-0.757,0.834l0.012,-1.733c0.075,-1 0.037,-1.625 0.016,-2.306c0,-0.171 -0.154,-0.394 -0.309,-0.394c-0.155,0 -0.322,0.024 -0.322,0.195c-0.058,0.281 -0.012,0.601 0.041,0.899l0,3.339l-1.722,-1.899c-0.109,-0.12 -0.288,-0.12 -0.397,0c-0.11,0.121 -0.11,0.318 -0,0.439l2.119,2.336l0.035,0.808l-0.061,1.748l0.026,0.85l0,1.166l-0.44,-0.456l-0.727,-0.755l-0.529,-0.563l-0.54,-0.616c-0.11,-0.121 -0.288,-0.121 -0.398,0c-0.109,0.121 -0.109,0.317 0,0.438l0.879,0.998l0.818,0.854l0.894,0.995c-0.034,0.42 0.042,0.884 0.039,1.301c-0.004,0.732 -0.022,1.497 -0.027,2.428Z" style="fill:#93af64;"/></g></svg>