<svg width="100%" height="100%" version="1.1" viewBox="0 0 200 200" xmlns:xlink="http://www.w3.org/1999/xlink" xmlns="http://www.w3.org/2000/svg">
    <pattern id="waves" width="300" stroke-width="5" stroke="rgba(200, 200, 200, .2)" fill="rgb(255, 255, 255)" height="150" patternUnits="userSpaceOnUse" patternTransform="scale(.33)">
        <circle cx="150" cy="0" r="147.5"></circle> <circle cx="150" cy="0" r="127.5"></circle> <circle cx="150" cy="0" r="107.5"></circle> <circle cx="150" cy="0" r="87.5"></circle> <circle cx="150" cy="0" r="67.5"></circle> <circle cx="150" cy="0" r="47.5"></circle> <circle cx="150" cy="0" r="27.5"></circle> <circle cx="0" cy="75" r="147.5"></circle> <circle cx="0" cy="75" r="127.5"></circle> <circle cx="0" cy="75" r="107.5"></circle> <circle cx="0" cy="75" r="87.5"></circle> <circle cx="0" cy="75" r="67.5"></circle> <circle cx="0" cy="75" r="47.5"></circle> <circle cx="0" cy="75" r="27.5"></circle> <circle cx="300" cy="75" r="147.5"></circle> <circle cx="300" cy="75" r="127.5"></circle> <circle cx="300" cy="75" r="107.5"></circle> <circle cx="300" cy="75" r="87.5"></circle> <circle cx="300" cy="75" r="67.5"></circle> <circle cx="300" cy="75" r="47.5"></circle> <circle cx="300" cy="75" r="27.5"></circle> <circle cx="150" cy="150" r="147.5"></circle> <circle cx="150" cy="150" r="127.5"></circle> <circle cx="150" cy="150" r="107.5"></circle> <circle cx="150" cy="150" r="87.5"></circle> <circle cx="150" cy="150" r="67.5"></circle> <circle cx="150" cy="150" r="47.5"></circle> <circle cx="150" cy="150" r="27.5"></circle> <circle cx="0" cy="225" r="147.5"></circle> <circle cx="0" cy="225" r="127.5"></circle> <circle cx="0" cy="225" r="107.5"></circle> <circle cx="0" cy="225" r="87.5"></circle> <circle cx="0" cy="225" r="67.5"></circle> <circle cx="0" cy="225" r="47.5"></circle> <circle cx="0" cy="225" r="27.5"></circle> <circle cx="300" cy="225" r="147.5"></circle> <circle cx="300" cy="225" r="127.5"></circle> <circle cx="300" cy="225" r="107.5"></circle> <circle cx="300" cy="225" r="87.5"></circle> <circle cx="300" cy="225" r="67.5"></circle> <circle cx="300" cy="225" r="47.5"></circle> <circle cx="300" cy="225" r="27.5"></circle>
    </pattern>
    <rect x="0" y="0" height="200" width="200" fill="url(#waves)"></rect>
</svg>